<?xml version="1.0" encoding="utf-8"?>
<!-- Generator: Adobe Illustrator 17.0.2, SVG Export Plug-In . SVG Version: 6.00 Build 0)  -->
<!DOCTYPE svg PUBLIC "-//W3C//DTD SVG 1.1//EN" "http://www.w3.org/Graphics/SVG/1.1/DTD/svg11.dtd">
<svg version="1.1" id="Layer_1" xmlns="http://www.w3.org/2000/svg" xmlns:xlink="http://www.w3.org/1999/xlink" x="0px" y="0px"
	 width="64px" height="64px" viewBox="0 0 64 64" enable-background="new 0 0 64 64" xml:space="preserve">
<g id="XMLID_365_">
	<circle id="XMLID_366_" fill="#FFFFFF" stroke="#E4E4E4" stroke-miterlimit="10" cx="32.152" cy="31.848" r="30.848"/>
</g>
<g id="XMLID_333_">
	<g id="XMLID_341_">
		<path id="XMLID_234_" fill="#9B9B9B" d="M32.152,19.672c-1.361,0-2.468-1.107-2.468-2.468s1.107-2.468,2.468-2.468
			s2.468,1.107,2.468,2.468S33.513,19.672,32.152,19.672z M32.152,15.971c-0.68,0-1.234,0.553-1.234,1.234s0.554,1.234,1.234,1.234
			s1.234-0.553,1.234-1.234S32.832,15.971,32.152,15.971z"/>
	</g>
	<g id="XMLID_336_">
		<path fill="#9B9B9B" d="M32.086,12.133c0.257,0,0.504,0.095,0.694,0.267l10.477,9.443v26.091H21.047V21.839l10.34-9.434
			C31.579,12.23,31.827,12.133,32.086,12.133 M32.086,10.899c-0.549,0-1.097,0.198-1.531,0.593
			c-2.686,2.45-10.743,9.801-10.743,9.801v27.874h24.678V21.294c0,0-8.163-7.358-10.884-9.81
			C33.175,11.094,32.63,10.899,32.086,10.899L32.086,10.899z"/>
	</g>
	<g id="XMLID_335_">
		<path id="XMLID_231_" fill="#9B9B9B" d="M31.365,41.35c-0.609-0.063-1.216-0.21-1.951-0.44c-0.986-0.356-2.181-1.007-2.181-1.909
			c0-0.608,0.377-0.986,0.986-0.986c0.231,0,0.44,0.042,0.609,0.147c1.027,0.608,1.908,1.153,3.545,1.153
			c1.573,0,2.412-0.608,2.412-1.531c0-1.049-0.944-1.594-2.873-2.223c-3.251-1.049-4.51-2.181-4.51-4.258
			c0-2.014,1.51-3.188,4.048-3.419v-1.531c0-0.524,0.419-0.965,0.965-0.965c0.546,0,0.965,0.44,0.965,0.965v1.531
			c0.462,0.042,0.965,0.147,1.468,0.273c0.902,0.252,2.055,0.797,2.055,1.573c0,0.524-0.293,1.028-0.965,1.028
			c-0.21,0-0.315-0.021-0.462-0.084c-1.049-0.419-1.783-0.755-3.02-0.755c-1.636,0-2.643,0.419-2.643,1.384
			c0,0.986,0.65,1.363,2.936,2.181c2.664,0.944,4.426,1.846,4.426,4.111c0,1.867-1.238,3.356-3.88,3.733v1.552
			c0,0.524-0.42,0.965-0.965,0.965c-0.545,0-0.965-0.44-0.965-0.965V41.35z"/>
	</g>
</g>
</svg>
