<?xml version="1.0" encoding="utf-8"?>
<!-- Generator: Adobe Illustrator 17.0.2, SVG Export Plug-In . SVG Version: 6.00 Build 0)  -->
<!DOCTYPE svg PUBLIC "-//W3C//DTD SVG 1.1//EN" "http://www.w3.org/Graphics/SVG/1.1/DTD/svg11.dtd">
<svg version="1.1" id="Layer_1" xmlns="http://www.w3.org/2000/svg" xmlns:xlink="http://www.w3.org/1999/xlink" x="0px" y="0px"
	 width="64px" height="64px" viewBox="0 0 64 64" enable-background="new 0 0 64 64" xml:space="preserve">
<g id="KwT2Gd_1_">
	<g id="XMLID_696_">
		<path id="XMLID_744_" fill="#9B9B9B" d="M32.024,62.252C15.478,62.271,2.02,48.834,2,32.277
			C1.981,15.736,15.413,2.282,31.979,2.252C48.51,2.222,61.97,15.663,62,32.231C62.03,48.767,48.584,62.233,32.024,62.252z
			 M31.978,5.06C16.965,5.088,4.747,17.347,4.808,32.323c0.061,15.021,12.355,27.233,27.306,27.124
			c14.987-0.11,27.064-12.228,27.08-27.172C59.21,17.279,46.963,5.033,31.978,5.06z"/>
		<path id="XMLID_740_" fill="#9B9B9B" d="M48.928,19.954c0.941,0.995,1.492,1.579,1.886,1.996
			c-8.493,8.492-16.936,16.934-25.257,25.254c-4.587-4.602-9.432-9.462-14.411-14.457c0.39-0.356,1.026-0.938,1.652-1.509
			c4.19,4.202,8.346,8.369,12.41,12.445C33.154,35.733,40.935,27.949,48.928,19.954z"/>
	</g>
</g>
</svg>
