<?xml version="1.0" encoding="utf-8"?>
<!-- Generator: Adobe Illustrator 17.0.2, SVG Export Plug-In . SVG Version: 6.00 Build 0)  -->
<!DOCTYPE svg PUBLIC "-//W3C//DTD SVG 1.1//EN" "http://www.w3.org/Graphics/SVG/1.1/DTD/svg11.dtd">
<svg version="1.1" id="Layer_1" xmlns="http://www.w3.org/2000/svg" xmlns:xlink="http://www.w3.org/1999/xlink" x="0px" y="0px"
	 width="64px" height="64px" viewBox="0 0 64 64" enable-background="new 0 0 64 64" xml:space="preserve">
<g id="XMLID_431_">
	<circle id="XMLID_433_" fill="#FFFFFF" stroke="#E4E4E4" stroke-miterlimit="10" cx="31.95" cy="31.95" r="30.395"/>
	<g id="XMLID_432_">
		<path id="XMLID_137_" fill="#9B9B9B" d="M32.569,47.189c-7.039,0-12.766-5.727-12.766-12.766c0-6.878,11.821-19.421,12.325-19.951
			l0.441-0.465l0.441,0.465c0.503,0.53,12.325,13.073,12.325,19.951C45.335,41.462,39.608,47.189,32.569,47.189z M32.569,15.785
			c-2.166,2.367-11.55,12.952-11.55,18.638c0,6.369,5.181,11.55,11.55,11.55s11.55-5.181,11.55-11.55
			C44.119,28.736,34.735,18.151,32.569,15.785z"/>
	</g>
</g>
</svg>
