<?xml version="1.0" encoding="utf-8"?>
<!-- Generator: Adobe Illustrator 17.0.2, SVG Export Plug-In . SVG Version: 6.00 Build 0)  -->
<!DOCTYPE svg PUBLIC "-//W3C//DTD SVG 1.1//EN" "http://www.w3.org/Graphics/SVG/1.1/DTD/svg11.dtd">
<svg version="1.1" id="Layer_1" xmlns="http://www.w3.org/2000/svg" xmlns:xlink="http://www.w3.org/1999/xlink" x="0px" y="0px"
	 width="64px" height="64px" viewBox="0 0 64 64" enable-background="new 0 0 64 64" xml:space="preserve">
<circle id="XMLID_373_" fill="#FFFFFF" stroke="#E4E4E4" stroke-miterlimit="10" cx="32.039" cy="31.888" r="30.711"/>
<g id="XMLID_346_">
	<g id="XMLID_356_">
		<path id="XMLID_201_" fill="#9B9B9B" d="M36.056,51.362c-2.031,0-5.073-0.644-5.218-0.674l-0.6-0.128l0.127-0.6
			c0.067-0.318,0.71-3.129,2.525-3.979c0.999-0.468,2.187-0.307,3.237-0.165c0.753,0.102,1.533,0.208,1.903,0.005
			c0.089-0.049,0.097-0.088,0.104-0.122c0.066-0.338-0.345-1.07-0.668-1.468l-0.423-0.523l2.378-1.593l5.712,5.711l-0.536,0.429
			c-0.129,0.103-3.206,2.53-7.778,3.068C36.59,51.35,36.332,51.362,36.056,51.362z M31.73,49.612
			c1.169,0.222,3.657,0.644,4.945,0.491c3.139-0.369,5.546-1.725,6.589-2.409l-3.998-3.998l-0.459,0.307
			c0.313,0.504,0.663,1.254,0.532,1.929c-0.082,0.417-0.33,0.751-0.718,0.964c-0.723,0.398-1.664,0.271-2.659,0.136
			c-0.923-0.125-1.878-0.256-2.55,0.06C32.568,47.488,32.006,48.749,31.73,49.612z"/>
	</g>
	<g id="XMLID_355_">
		<circle fill="#9B9B9B" cx="20.362" cy="16.514" r="0.895"/>
	</g>
	<g id="XMLID_354_">
		<circle fill="#9B9B9B" cx="47.445" cy="43.597" r="0.895"/>
	</g>
	<g id="XMLID_351_">
		<path id="XMLID_199_" fill="#9B9B9B" d="M29.882,19.393c-0.699,0-1.103-0.776-1.432-1.41c-0.134-0.259-0.359-0.692-0.479-0.777
			c0.022,0.015,0.091,0.042,0.176,0.026l-0.224-1.208c0.821-0.148,1.261,0.705,1.618,1.392c0.068,0.132,0.161,0.31,0.251,0.464
			c0.029-0.175,0.052-0.375,0.069-0.523c0.088-0.77,0.196-1.728,1.012-1.879c0.804-0.148,1.259,0.705,1.617,1.393
			c0.068,0.131,0.16,0.308,0.249,0.461c0.029-0.175,0.051-0.372,0.068-0.519c0.087-0.77,0.196-1.728,1.011-1.879
			c0.803-0.15,1.259,0.705,1.617,1.393c0.068,0.131,0.16,0.307,0.248,0.46c0.029-0.175,0.051-0.372,0.067-0.518
			c0.087-0.77,0.196-1.728,1.011-1.879c0.812-0.15,1.258,0.705,1.615,1.393c0.068,0.131,0.158,0.306,0.247,0.459
			c0.028-0.174,0.05-0.371,0.067-0.517c0.087-0.77,0.196-1.728,1.011-1.879c0.801-0.15,1.259,0.704,1.616,1.393
			c0.068,0.131,0.159,0.306,0.248,0.459c0.029-0.174,0.05-0.37,0.067-0.517c0.087-0.77,0.195-1.728,1.011-1.88
			c0.804-0.148,1.259,0.705,1.616,1.393c0.134,0.259,0.359,0.692,0.478,0.777c-0.022-0.015-0.094-0.041-0.176-0.026l0.223,1.208
			c-0.809,0.151-1.258-0.705-1.615-1.393c-0.068-0.131-0.16-0.307-0.248-0.459c-0.028,0.174-0.05,0.371-0.067,0.518
			c-0.087,0.77-0.195,1.727-1.009,1.879c-0.82,0.151-1.26-0.705-1.617-1.393c-0.068-0.131-0.159-0.307-0.248-0.459
			c-0.028,0.174-0.05,0.371-0.067,0.517c-0.087,0.77-0.196,1.729-1.011,1.88c-0.813,0.148-1.258-0.706-1.615-1.393
			c-0.067-0.131-0.158-0.306-0.247-0.458c-0.028,0.174-0.05,0.37-0.067,0.516c-0.087,0.77-0.196,1.728-1.011,1.879
			c-0.808,0.148-1.258-0.705-1.617-1.393c-0.068-0.131-0.16-0.308-0.249-0.461c-0.029,0.175-0.051,0.372-0.068,0.519
			c-0.087,0.77-0.196,1.728-1.011,1.879c-0.816,0.15-1.26-0.705-1.617-1.393c-0.068-0.132-0.16-0.309-0.25-0.462
			c-0.029,0.175-0.052,0.374-0.068,0.522c-0.088,0.77-0.196,1.728-1.012,1.879C30.003,19.387,29.941,19.393,29.882,19.393z"/>
	</g>
	<g id="XMLID_350_">
		<path id="XMLID_195_" fill="#9B9B9B" d="M17.663,52.957l-0.42-0.531c-0.146-0.185-3.58-4.592-3.205-9.964
			c0.03-0.418,1.505-21.553,1.611-23.068l0.127-1.818l0.999,1.523c0.17,0.259,0.365,0.5,0.581,0.714v0l6.519,6.52l-1.168,16.734
			c-0.372,5.334-4.385,9.256-4.556,9.42L17.663,52.957z M16.77,20.966c-0.36,5.153-1.482,21.218-1.507,21.582
			c-0.267,3.824,1.654,7.204,2.527,8.526c1.048-1.197,3.427-4.302,3.691-8.092l1.129-16.176L16.77,20.966z"/>
	</g>
	<g id="XMLID_349_">
		<path id="XMLID_172_" fill="#9B9B9B" d="M51.248,41.092l-3.559-3.559l1.192-8.599c0.104-0.749,0.351-1.459,0.735-2.11l2.256-4.851
			l0.851,5.281c0.193,0.731,0.238,1.481,0.134,2.231L51.248,41.092z M48.989,37.097l1.381,1.381l1.27-9.161
			c0.083-0.596,0.045-1.193-0.112-1.774l-0.013-0.062l-0.218-1.356l-0.609,1.301c-0.309,0.517-0.507,1.081-0.59,1.677L48.989,37.097
			z"/>
	</g>
	<g id="XMLID_348_">
		<path id="XMLID_169_" fill="#9B9B9B" d="M47.55,49.387c-1.456,0-2.913-0.554-4.021-1.663L16.487,20.682
			c-1.074-1.074-1.666-2.503-1.666-4.022c0-1.519,0.592-2.948,1.666-4.022c1.074-1.075,2.502-1.666,4.022-1.666
			c1.519,0,2.947,0.592,4.022,1.666L51.572,39.68c2.218,2.218,2.218,5.826,0,8.044l0,0C50.463,48.833,49.007,49.387,47.55,49.387z
			 M20.508,12.201c-1.191,0-2.311,0.464-3.153,1.306c-0.842,0.842-1.306,1.962-1.306,3.153c0,1.191,0.464,2.311,1.306,3.154
			l27.042,27.042c1.738,1.738,4.567,1.738,6.306,0l0.434,0.434l-0.434-0.435c1.738-1.739,1.738-4.568,0-6.306L23.662,13.507
			C22.819,12.664,21.7,12.201,20.508,12.201z"/>
	</g>
</g>
</svg>
