<?xml version="1.0" encoding="utf-8"?>
<!-- Generator: Adobe Illustrator 17.0.2, SVG Export Plug-In . SVG Version: 6.00 Build 0)  -->
<!DOCTYPE svg PUBLIC "-//W3C//DTD SVG 1.1//EN" "http://www.w3.org/Graphics/SVG/1.1/DTD/svg11.dtd">
<svg version="1.1" id="Layer_1" xmlns="http://www.w3.org/2000/svg" xmlns:xlink="http://www.w3.org/1999/xlink" x="0px" y="0px"
	 width="64px" height="64px" viewBox="0 0 64 64" enable-background="new 0 0 64 64" xml:space="preserve">
<circle id="XMLID_379_" fill="#FFFFFF" stroke="#E4E4E4" stroke-miterlimit="10" cx="31.421" cy="31.544" r="30.409"/>
<g id="XMLID_342_">
	<g id="XMLID_344_">
		<circle fill="#9B9B9B" cx="46.018" cy="43.798" r="1.135"/>
	</g>
	<g id="XMLID_343_">
		<path id="XMLID_205_" fill="#9B9B9B" d="M46.636,48.6c-1.048,0-2.095-0.385-2.9-1.159L24.218,26.9
			c-3.02,1.111-6.385,0.384-8.679-1.909c-1.948-1.947-2.793-4.726-2.261-7.434l0.22-1.12l3.824,3.825
			c0.505,0.118,2.524-0.343,4.272-0.889c0.545-1.748,1.007-3.768,0.889-4.272l-3.825-3.824l1.12-0.22
			c2.707-0.53,5.486,0.314,7.434,2.261l0,0c2.395,2.394,3.071,5.991,1.749,9.079l20.676,19.092c1.594,1.659,1.568,4.29-0.033,5.89
			C48.791,48.192,47.713,48.6,46.636,48.6z M24.526,25.458l20.071,21.126c1.14,1.093,3.007,1.075,4.143-0.061
			c1.139-1.139,1.158-3.006,0.044-4.165L27.476,22.683l0.202-0.408c1.341-2.709,0.808-5.962-1.326-8.096
			c-1.371-1.371-3.226-2.109-5.131-2.059l2.173,2.173c0.21,0.21,0.85,0.85-0.737,5.753l-0.096,0.295l-0.296,0.096
			c-4.904,1.587-5.541,0.947-5.752,0.736L14.34,19c-0.042,1.905,0.688,3.76,2.059,5.131c2.041,2.041,5.079,2.628,7.738,1.493
			L24.526,25.458z"/>
	</g>
</g>
</svg>
