<?xml version="1.0" encoding="utf-8"?>
<!-- Generator: Adobe Illustrator 18.1.1, SVG Export Plug-In . SVG Version: 6.00 Build 0)  -->
<svg version="1.1" id="Layer_1" xmlns="http://www.w3.org/2000/svg" xmlns:xlink="http://www.w3.org/1999/xlink" x="0px" y="0px"
	 viewBox="0 0 139.3 17.4" enable-background="new 0 0 139.3 17.4" xml:space="preserve">
<g>
	<path fill="#666666" d="M0,0.5h11.7v2.9H3.4v3.8h7.3v2.9H3.4V17H0V0.5z"/>
	<path fill="#666666" d="M14,0.5h3.4V14h8.2v3H14V0.5z"/>
	<path fill="#666666" d="M40.7,15.5c-1.2,1.3-3,1.9-5.4,1.9s-4.2-0.6-5.4-1.9c-1.7-1.6-2.5-3.8-2.5-6.8c0-3,0.8-5.3,2.5-6.8
		c1.2-1.3,3-1.9,5.4-1.9s4.2,0.6,5.4,1.9c1.7,1.5,2.5,3.8,2.5,6.8C43.1,11.7,42.3,13.9,40.7,15.5z M38.5,13c0.8-1,1.2-2.4,1.2-4.3
		c0-1.8-0.4-3.3-1.2-4.3c-0.8-1-1.9-1.5-3.2-1.5S32.8,3.4,32,4.4s-1.2,2.4-1.2,4.3c0,1.9,0.4,3.3,1.2,4.3s1.9,1.5,3.3,1.5
		S37.7,14,38.5,13z"/>
	<path fill="#666666" d="M58.5,15.5c-1.2,1.3-3,1.9-5.4,1.9s-4.2-0.6-5.4-1.9c-1.7-1.6-2.5-3.8-2.5-6.8c0-3,0.8-5.3,2.5-6.8
		c1.2-1.3,3-1.9,5.4-1.9s4.2,0.6,5.4,1.9C60.1,3.4,61,5.7,61,8.7C61,11.7,60.1,13.9,58.5,15.5z M56.3,13c0.8-1,1.2-2.4,1.2-4.3
		c0-1.8-0.4-3.3-1.2-4.3c-0.8-1-1.9-1.5-3.2-1.5s-2.5,0.5-3.3,1.5s-1.2,2.4-1.2,4.3c0,1.9,0.4,3.3,1.2,4.3s1.9,1.5,3.3,1.5
		S55.5,14,56.3,13z"/>
	<path fill="#666666" d="M73.2,0.9C74.4,1.2,75.3,1.9,76,3c0.6,0.8,1,1.7,1.2,2.7s0.3,1.9,0.3,2.7c0,2.2-0.4,4-1.3,5.6
		c-1.2,2-3,3.1-5.5,3.1h-7.1V0.5h7.1C71.7,0.5,72.6,0.6,73.2,0.9z M66.9,3.4v10.8h3.2c1.6,0,2.8-0.8,3.4-2.4
		c0.4-0.9,0.5-1.9,0.5-3.1c0-1.7-0.3-3-0.8-3.9c-0.5-0.9-1.6-1.3-3.1-1.3H66.9z"/>
	<path fill="#666666" d="M91.2,5.6c-0.3-1.1-0.9-1.9-1.9-2.4c-0.6-0.2-1.2-0.4-1.9-0.4c-1.3,0-2.4,0.5-3.3,1.5
		c-0.9,1-1.3,2.5-1.3,4.5c0,2,0.5,3.5,1.4,4.3c0.9,0.8,2,1.3,3.2,1.3c1.2,0,2.1-0.3,2.8-1c0.7-0.7,1.2-1.5,1.4-2.6h-3.8V8.1h6.9V17
		h-2.3L92,14.9c-0.7,0.8-1.3,1.3-1.8,1.6c-0.9,0.6-2,0.8-3.4,0.8c-2.2,0-4-0.8-5.4-2.3c-1.5-1.5-2.2-3.6-2.2-6.2
		c0-2.7,0.7-4.8,2.2-6.4c1.5-1.6,3.4-2.4,5.8-2.4c2.1,0,3.8,0.5,5,1.6c1.3,1.1,2,2.4,2.2,4H91.2z"/>
	<path fill="#666666" d="M102.6,0.5h3.9l5.8,16.5h-3.7l-1.1-3.4h-6.1l-1.1,3.4h-3.6L102.6,0.5z M102.4,10.8h4.2l-2.1-6.5L102.4,10.8
		z"/>
	<path fill="#666666" d="M124.7,0.5v2.9h-4.9V17h-3.5V3.4h-5V0.5H124.7z"/>
	<path fill="#666666" d="M138.9,3.4h-8.7v3.5h8v2.9h-8V14h9.1v3h-12.5V0.5h12.1V3.4z"/>
</g>
</svg>
