<?xml version="1.0" encoding="utf-8"?>
<!-- Generator: Adobe Illustrator 18.0.0, SVG Export Plug-In . SVG Version: 6.00 Build 0)  -->
<!DOCTYPE svg PUBLIC "-//W3C//DTD SVG 1.1//EN" "http://www.w3.org/Graphics/SVG/1.1/DTD/svg11.dtd">
<svg version="1.1" id="Слой_1" xmlns="http://www.w3.org/2000/svg" xmlns:xlink="http://www.w3.org/1999/xlink" x="0px" y="0px"
	 viewBox="0 0 115.1 18.4" enable-background="new 0 0 115.1 18.4" xml:space="preserve">
<g>
	<g>
		<g>
			<path fill="#FACE09" d="M17.9,4.9H2c-1.1,0-2,0.8-2,1.9s0.9,1.9,2,1.9h15.8c1.1,0,2-0.8,2-1.9S19,4.9,17.9,4.9z"/>
		</g>
		<g>
			<path fill="#FACE09" d="M2,4h15.8c1.1,0,2-0.8,2-1.9c0-1.1-0.9-1.9-2-1.9H2C0.9,0.2,0,1,0,2.1S0.9,4,2,4z"/>
		</g>
		<g>
			<g>
				<path fill="#FACE09" d="M7.2,14.5H2c-1.1,0-2,0.8-2,1.9c0,1.1,0.9,1.9,2,1.9h5.2C7.2,17,7.2,15.2,7.2,14.5z"/>
			</g>
			<g>
				<path fill="#FACE09" d="M17.9,14.5h-5.2c0,1,0,2.6,0,3.8h5.1c1.1,0,2-0.8,2-1.9C19.9,15.4,19,14.5,17.9,14.5z"/>
			</g>
		</g>
		<g>
			<path fill="#FACE09" d="M17.9,9.7H2c-1.1,0-2,0.8-2,1.9c0,1.1,0.9,1.9,2,1.9h5.2c0.3-1.3,1.3-2.3,2.7-2.3c1.3,0,2.4,1,2.7,2.3
				h5.2c1.1,0,2-0.8,2-1.9S19,9.7,17.9,9.7z"/>
		</g>
	</g>
	<g>
		<path fill="#404041" d="M34.7,1.1c3.5,0,5.3,2.1,5.3,4.6c0,1.4-0.5,2.3-1.3,3.1c1.1,0.8,1.9,2,1.9,3.7c0,2.9-2.4,5.2-6.1,5.2h-5.9
			c-0.8,0-1.6-0.7-1.6-1.5V2.6c0-0.8,0.7-1.5,1.6-1.5H34.7z M30.2,4v3.8h4.4c1.4,0,2.2-0.7,2.2-1.9C36.9,4.7,36,4,34.7,4L30.2,4
			L30.2,4z M30.2,10.6v4.3h4.4c1.7,0,2.8-0.8,2.8-2.2s-1.1-2.1-2.8-2.1L30.2,10.6L30.2,10.6z"/>
		<path fill="#404041" d="M49.9,17.9c-3.7,0-6.5-2.8-6.5-6.2s2.9-6.1,6.5-6.1c3.6,0,6.5,2.7,6.5,6.1S53.5,17.9,49.9,17.9z M49.9,8.4
			c-1.9,0-3.5,1.6-3.5,3.4s1.5,3.4,3.5,3.4s3.5-1.6,3.5-3.4S51.8,8.4,49.9,8.4z"/>
		<path fill="#404041" d="M64,14.1L61,17.4c-0.3,0.4-0.8,0.5-1.2,0.5c-0.9,0-1.6-0.7-1.6-1.5c0-0.3,0.1-0.7,0.4-1l3.4-3.7l-3.3-3.6
			c-0.2-0.2-0.4-0.6-0.4-1c0-0.8,0.7-1.5,1.6-1.5c0.5,0,0.9,0.2,1.2,0.5L64,9.5l2.9-3.2c0.3-0.4,0.7-0.5,1.2-0.5
			c0.9,0,1.6,0.7,1.6,1.5c0,0.4-0.1,0.7-0.4,1L66,11.8l3.4,3.7c0.2,0.3,0.4,0.7,0.4,1c0,0.8-0.7,1.5-1.6,1.5c-0.4,0-0.9-0.2-1.2-0.5
			L64,14.1z"/>
		<path fill="#404041" d="M72.8,1.5c0-0.8,0.7-1.5,1.6-1.5s1.6,0.7,1.6,1.5v5.4c0.5-0.5,1.7-1.3,3.3-1.3c3.4,0,6.4,2.7,6.4,6.1
			S82.9,18,79.4,18c-1.7,0-2.9-0.7-3.5-1.3c0,0.5-0.6,1.3-1.5,1.3c-0.8,0-1.6-0.7-1.6-1.5L72.8,1.5L72.8,1.5z M79.2,15.2
			c2,0,3.5-1.6,3.5-3.4s-1.5-3.4-3.5-3.4s-3.4,1.4-3.4,3.4S77.2,15.2,79.2,15.2z"/>
		<path fill="#404041" d="M91.3,13c0.3,1.3,1.7,2.2,3.2,2.2c1.1,0,1.9-0.2,2.2-0.5c0.4-0.2,0.7-0.4,1.1-0.4c0.8,0,1.4,0.5,1.4,1.3
			c0,0.7-0.4,1-0.8,1.3c-0.4,0.2-1.7,0.9-4,0.9c-3.7,0-6.5-2.8-6.5-6.2s2.9-6.1,6.4-6.1c3.5,0,6.1,2.8,6.1,5.5c0,1-0.8,1.7-1.9,1.7
			C98.7,13,91.3,13,91.3,13z M91.3,10.6h6.2c-0.2-1.1-1.4-2.3-3.1-2.3C92.9,8.4,91.6,9.4,91.3,10.6z"/>
		<path fill="#404041" d="M105.9,13c0.3,1.3,1.7,2.2,3.2,2.2c1.1,0,1.9-0.2,2.2-0.5c0.4-0.2,0.7-0.4,1.1-0.4c0.8,0,1.4,0.5,1.4,1.3
			c0,0.7-0.4,1-0.8,1.3c-0.4,0.2-1.7,0.9-4,0.9c-3.7,0-6.5-2.8-6.5-6.2s2.9-6.1,6.4-6.1c3.5,0,6.1,2.8,6.1,5.5c0,1-0.8,1.7-1.9,1.7
			C113.3,13,105.9,13,105.9,13z M105.9,10.6h6.2c-0.2-1.1-1.4-2.3-3.1-2.3C107.5,8.4,106.2,9.4,105.9,10.6z"/>
	</g>
</g>
</svg>
