<?xml version="1.0" encoding="utf-8"?>
<!-- Generator: Adobe Illustrator 18.0.0, SVG Export Plug-In . SVG Version: 6.00 Build 0)  -->
<!DOCTYPE svg PUBLIC "-//W3C//DTD SVG 1.1//EN" "http://www.w3.org/Graphics/SVG/1.1/DTD/svg11.dtd">
<svg version="1.1" id="Layer_1" xmlns="http://www.w3.org/2000/svg" xmlns:xlink="http://www.w3.org/1999/xlink" x="0px" y="0px"
	 viewBox="0 0 182.6 42" enable-background="new 0 0 182.6 42" xml:space="preserve">
<g>
	<g>
		<g>
			<path fill="#FACE11" d="M41.1,11H4.6C2,11,0,12.9,0,15.4s2.1,4.5,4.6,4.5H41c2.5,0,4.6-1.9,4.6-4.5S43.6,11,41.1,11z"/>
		</g>
		<g>
			<path fill="#FACE11" d="M4.6,8.9H41c2.5,0,4.6-1.9,4.6-4.5C45.6,2,43.5,0,41,0H4.6C2,0,0,1.9,0,4.5S2.1,8.9,4.6,8.9z"/>
		</g>
		<g>
			<g>
				<path fill="#FACE11" d="M16.5,33H4.6C2,33,0,35,0,37.5c0,2.4,2.1,4.5,4.6,4.5h11.8C16.5,38.6,16.5,34.6,16.5,33z"/>
			</g>
			<g>
				<path fill="#FACE11" d="M41.1,33H29.2c0,2.2,0,5.9,0,8.8H41c2.5,0,4.6-1.9,4.6-4.5C45.7,35,43.6,33,41.1,33z"/>
			</g>
		</g>
		<g>
			<path fill="#FACE11" d="M41.1,22H4.6C2,22,0,23.9,0,26.5c0,2.4,2.1,4.5,4.6,4.5h12c0.6-3,3.1-5.2,6.2-5.2c3,0,5.5,2.2,6.2,5.2h12
				c2.5,0,4.6-1.9,4.6-4.5S43.6,22,41.1,22z"/>
		</g>
	</g>
	<g>
		<path fill="#333333" d="M69.9,10c4.9,0,7.5,3,7.5,6.4c0,2-0.7,3.2-1.8,4.3c1.6,1.2,2.6,2.8,2.6,5.1c0,4-3.4,7.3-8.5,7.3h-8.4
			c-1.2,0-2.2-0.9-2.2-2.1V12.1c0-1.2,1-2.1,2.2-2.1H69.9z M63.5,13.9v5.3h6.2c1.9,0,3.1-0.9,3.1-2.6c0-1.6-1.3-2.6-3.1-2.6
			L63.5,13.9L63.5,13.9z M63.5,23.2v6h6.2c2.4,0,4-1.2,4-3.1s-1.5-3-4-3L63.5,23.2L63.5,23.2z"/>
		<path fill="#333333" d="M91.1,33.5c-5.1,0-9.1-3.9-9.1-8.7s4-8.6,9.1-8.6c5.1,0,9.1,3.8,9.1,8.6S96.2,33.5,91.1,33.5z M91.1,20.2
			c-2.7,0-4.9,2.2-4.9,4.7s2.1,4.8,4.9,4.8c2.8,0,4.9-2.3,4.9-4.8S93.8,20.2,91.1,20.2z"/>
		<path fill="#333333" d="M111,28.1l-4.3,4.7c-0.4,0.5-1.1,0.8-1.7,0.8c-1.3,0-2.2-1-2.2-2.1c0-0.4,0.2-0.9,0.5-1.3l4.7-5.2
			l-4.6-5.1c-0.3-0.3-0.5-0.8-0.5-1.3c0-1.1,1-2.1,2.2-2.1c0.7,0,1.3,0.3,1.7,0.8l4.1,4.6l4.1-4.6c0.4-0.5,1-0.8,1.7-0.8
			c1.3,0,2.2,1,2.2,2.1c0,0.5-0.2,1-0.5,1.3l-4.6,5.1l4.7,5.2c0.3,0.4,0.5,0.9,0.5,1.3c0,1.1-0.9,2.1-2.2,2.1
			c-0.6,0-1.3-0.3-1.7-0.8L111,28.1z"/>
		<path fill="#333333" d="M123.4,10.5c0-1.1,1-2.1,2.2-2.1c1.2,0,2.2,1,2.2,2.1v7.6c0.8-0.8,2.4-1.8,4.6-1.8c4.8,0,8.9,3.8,8.9,8.6
			s-3.9,8.7-8.8,8.7c-2.4,0-4-1-5-1.8c0,0.8-0.8,1.8-2.1,1.8c-1.2,0-2.2-1-2.2-2.1L123.4,10.5L123.4,10.5z M132.3,29.7
			c2.8,0,4.9-2.3,4.9-4.8s-2.1-4.7-4.9-4.7c-2.8,0-4.8,2-4.8,4.7S129.5,29.7,132.3,29.7z"/>
		<path fill="#333333" d="M149.3,26.6c0.4,1.8,2.4,3.1,4.5,3.1c1.6,0,2.6-0.3,3.1-0.7c0.5-0.3,1-0.5,1.6-0.5c1.2,0,2,0.8,2,1.9
			c0,0.9-0.5,1.4-1.2,1.9c-0.6,0.3-2.4,1.3-5.7,1.3c-5.1,0-9.1-3.9-9.1-8.7s4.1-8.5,8.9-8.5c4.9,0,8.6,3.9,8.6,7.8
			c0,1.4-1.1,2.4-2.6,2.4C159.6,26.6,149.3,26.6,149.3,26.6z M149.3,23.2h8.8c-0.3-1.5-2-3.2-4.4-3.2
			C151.5,20.1,149.7,21.6,149.3,23.2z"/>
		<path fill="#333333" d="M169.8,26.6c0.4,1.8,2.4,3.1,4.5,3.1c1.6,0,2.6-0.3,3.1-0.7c0.5-0.3,1-0.5,1.6-0.5c1.2,0,2,0.8,2,1.9
			c0,0.9-0.5,1.4-1.2,1.9c-0.6,0.3-2.4,1.3-5.7,1.3c-5.1,0-9.1-3.9-9.1-8.7s4.1-8.5,8.9-8.5c4.9,0,8.6,3.9,8.6,7.8
			c0,1.4-1.1,2.4-2.6,2.4C180.1,26.6,169.8,26.6,169.8,26.6z M169.8,23.2h8.8c-0.3-1.5-2-3.2-4.4-3.2
			C172,20.1,170.2,21.6,169.8,23.2z"/>
	</g>
</g>
</svg>
